# xmcd
#
# Track frame offsets:
#	150
#	25047
#	54890
#	61010
#	86227
#	100880
#	123342
#	140245
#	158015
#	180967
#	199250
#	238257
#
# Disc length: 3305 seconds
#
# Revision: 1
# Processed by: cddbd v1.5.2PL0 Copyright (c) Steve Scherf et al.
# Submitted via: MusicManager 7.3.0.0 
#
DISCID=9b0ce70c
DTITLE=Genesis - Duke(2007 remaster)
DYEAR=1980
DGENRE=Progressive Rock
TTITLE0=Behind The Lines
TTITLE1=Duchess
TTITLE2=Guide Vocal
TTITLE3=Man Of Our Times
TTITLE4=Misunderstanding
TTITLE5=Heathaze
TTITLE6=Turn It On Again
TTITLE7=Alone Tonight
TTITLE8=Cul-De-Sac
TTITLE9=Please Don't Ask
TTITLE10=Duke's Travels
TTITLE11=Duke's End
EXTD=YEAR: 1980
EXTT0=
EXTT1=
EXTT2=
EXTT3=
EXTT4=
EXTT5=
EXTT6=
EXTT7=
EXTT8=
EXTT9=
EXTT10=
EXTT11=
PLAYORDER=
